<mxfile host="app.diagrams.net" agent="Mozilla/5.0 (Windows NT 10.0; Win64; x64) AppleWebKit/537.36 (KHTML, like Gecko) Chrome/128.0.0.0 Safari/537.36 Edg/128.0.0.0" version="24.7.7">
  <diagram name="PÃ¡gina-1" id="G8lOVPFcZloYIxmfKtId">
    <mxGraphModel dx="880" dy="482" grid="1" gridSize="10" guides="1" tooltips="1" connect="1" arrows="1" fold="1" page="1" pageScale="1" pageWidth="827" pageHeight="1169" math="0" shadow="0">
      <root>
        <mxCell id="0" />
        <mxCell id="1" parent="0" />
        <mxCell id="RDqWQgwJgL6S87aNe7ft-3" style="edgeStyle=orthogonalEdgeStyle;rounded=0;orthogonalLoop=1;jettySize=auto;html=1;exitX=0.5;exitY=1;exitDx=0;exitDy=0;entryX=0.5;entryY=0;entryDx=0;entryDy=0;" edge="1" parent="1" source="RDqWQgwJgL6S87aNe7ft-1" target="RDqWQgwJgL6S87aNe7ft-2">
          <mxGeometry relative="1" as="geometry" />
        </mxCell>
        <mxCell id="RDqWQgwJgL6S87aNe7ft-1" value="inicio" style="ellipse;whiteSpace=wrap;html=1;" vertex="1" parent="1">
          <mxGeometry x="370" y="450" width="120" height="80" as="geometry" />
        </mxCell>
        <mxCell id="RDqWQgwJgL6S87aNe7ft-5" style="edgeStyle=orthogonalEdgeStyle;rounded=0;orthogonalLoop=1;jettySize=auto;html=1;exitX=0.5;exitY=1;exitDx=0;exitDy=0;entryX=0.5;entryY=0;entryDx=0;entryDy=0;" edge="1" parent="1" source="RDqWQgwJgL6S87aNe7ft-2" target="RDqWQgwJgL6S87aNe7ft-4">
          <mxGeometry relative="1" as="geometry" />
        </mxCell>
        <mxCell id="RDqWQgwJgL6S87aNe7ft-2" value="num" style="shape=hexagon;perimeter=hexagonPerimeter2;whiteSpace=wrap;html=1;fixedSize=1;" vertex="1" parent="1">
          <mxGeometry x="370" y="550" width="120" height="80" as="geometry" />
        </mxCell>
        <mxCell id="RDqWQgwJgL6S87aNe7ft-22" style="edgeStyle=orthogonalEdgeStyle;rounded=0;orthogonalLoop=1;jettySize=auto;html=1;exitX=0.5;exitY=1;exitDx=0;exitDy=0;entryX=0.5;entryY=0;entryDx=0;entryDy=0;" edge="1" parent="1" source="RDqWQgwJgL6S87aNe7ft-4" target="RDqWQgwJgL6S87aNe7ft-6">
          <mxGeometry relative="1" as="geometry" />
        </mxCell>
        <mxCell id="RDqWQgwJgL6S87aNe7ft-4" value="ler num" style="shape=parallelogram;perimeter=parallelogramPerimeter;whiteSpace=wrap;html=1;fixedSize=1;" vertex="1" parent="1">
          <mxGeometry x="370" y="660" width="120" height="60" as="geometry" />
        </mxCell>
        <mxCell id="RDqWQgwJgL6S87aNe7ft-6" value="se num &amp;gt;= 20 e &amp;lt;=90&lt;div&gt;entao&lt;/div&gt;" style="rhombus;whiteSpace=wrap;html=1;" vertex="1" parent="1">
          <mxGeometry x="355" y="740" width="150" height="140" as="geometry" />
        </mxCell>
        <mxCell id="RDqWQgwJgL6S87aNe7ft-18" style="edgeStyle=orthogonalEdgeStyle;rounded=0;orthogonalLoop=1;jettySize=auto;html=1;" edge="1" parent="1" source="RDqWQgwJgL6S87aNe7ft-10">
          <mxGeometry relative="1" as="geometry">
            <mxPoint x="430" y="960" as="targetPoint" />
            <Array as="points">
              <mxPoint x="275" y="875" />
              <mxPoint x="276" y="875" />
              <mxPoint x="276" y="930" />
              <mxPoint x="430" y="930" />
            </Array>
          </mxGeometry>
        </mxCell>
        <mxCell id="RDqWQgwJgL6S87aNe7ft-10" value="nao aceita" style="strokeWidth=2;html=1;shape=mxgraph.flowchart.terminator;whiteSpace=wrap;" vertex="1" parent="1">
          <mxGeometry x="240" y="790" width="70" height="40" as="geometry" />
        </mxCell>
        <mxCell id="RDqWQgwJgL6S87aNe7ft-11" style="edgeStyle=orthogonalEdgeStyle;rounded=0;orthogonalLoop=1;jettySize=auto;html=1;exitX=1;exitY=0.5;exitDx=0;exitDy=0;entryX=0;entryY=0.5;entryDx=0;entryDy=0;entryPerimeter=0;" edge="1" parent="1" source="RDqWQgwJgL6S87aNe7ft-6">
          <mxGeometry relative="1" as="geometry">
            <mxPoint x="540" y="810" as="targetPoint" />
          </mxGeometry>
        </mxCell>
        <mxCell id="RDqWQgwJgL6S87aNe7ft-12" style="edgeStyle=orthogonalEdgeStyle;rounded=0;orthogonalLoop=1;jettySize=auto;html=1;exitX=0;exitY=0.5;exitDx=0;exitDy=0;entryX=1;entryY=0.5;entryDx=0;entryDy=0;entryPerimeter=0;" edge="1" parent="1" source="RDqWQgwJgL6S87aNe7ft-6" target="RDqWQgwJgL6S87aNe7ft-10">
          <mxGeometry relative="1" as="geometry" />
        </mxCell>
        <mxCell id="RDqWQgwJgL6S87aNe7ft-13" value="sim" style="text;html=1;align=center;verticalAlign=middle;resizable=0;points=[];autosize=1;strokeColor=none;fillColor=none;" vertex="1" parent="1">
          <mxGeometry x="480" y="768" width="40" height="30" as="geometry" />
        </mxCell>
        <mxCell id="RDqWQgwJgL6S87aNe7ft-14" value="nao" style="text;html=1;align=center;verticalAlign=middle;resizable=0;points=[];autosize=1;strokeColor=none;fillColor=none;" vertex="1" parent="1">
          <mxGeometry x="340" y="768" width="40" height="30" as="geometry" />
        </mxCell>
        <mxCell id="RDqWQgwJgL6S87aNe7ft-15" value="fim" style="ellipse;whiteSpace=wrap;html=1;" vertex="1" parent="1">
          <mxGeometry x="370" y="960" width="120" height="80" as="geometry" />
        </mxCell>
        <mxCell id="RDqWQgwJgL6S87aNe7ft-20" style="edgeStyle=orthogonalEdgeStyle;rounded=0;orthogonalLoop=1;jettySize=auto;html=1;entryX=0.5;entryY=0;entryDx=0;entryDy=0;" edge="1" parent="1" source="RDqWQgwJgL6S87aNe7ft-19" target="RDqWQgwJgL6S87aNe7ft-15">
          <mxGeometry relative="1" as="geometry">
            <mxPoint x="430" y="920" as="targetPoint" />
            <Array as="points">
              <mxPoint x="575" y="880" />
              <mxPoint x="576" y="880" />
              <mxPoint x="576" y="930" />
              <mxPoint x="430" y="930" />
            </Array>
          </mxGeometry>
        </mxCell>
        <mxCell id="RDqWQgwJgL6S87aNe7ft-19" value="aceita" style="strokeWidth=2;html=1;shape=mxgraph.flowchart.terminator;whiteSpace=wrap;" vertex="1" parent="1">
          <mxGeometry x="540" y="790" width="70" height="40" as="geometry" />
        </mxCell>
      </root>
    </mxGraphModel>
  </diagram>
</mxfile>
